<svg xmlns="http://www.w3.org/2000/svg" xmlns:xlink="http://www.w3.org/1999/xlink" width="204" zoomAndPan="magnify" viewBox="0 0 153 36.750001" height="49" preserveAspectRatio="xMidYMid meet" version="1.0"><defs><g/><clipPath id="3b47f244ea"><path d="M 1 2 L 152.480469 2 L 152.480469 34 L 1 34 Z M 1 2 " clip-rule="nonzero"/></clipPath><clipPath id="6637cd9a46"><rect x="0" width="152" y="0" height="32"/></clipPath></defs><g clip-path="url(#3b47f244ea)"><g transform="matrix(1, 0, 0, 1, 1, 2)"><g clip-path="url(#6637cd9a46)"><g fill="#1a7deb" fill-opacity="1"><g transform="translate(0.347748, 24.948937)"><g><path d="M 1.328125 -15.015625 L 1.328125 -18.5625 L 6.328125 -18.5625 L 6.328125 -15.015625 Z M 1.421875 0 L 1.421875 -13.765625 L 6.234375 -13.765625 L 6.234375 0 Z M 1.421875 0 "/></g></g></g><g fill="#1a7deb" fill-opacity="1"><g transform="translate(8.003172, 24.948937)"><g><path d="M 1.578125 0 L 1.578125 -17.8125 L 10.703125 -17.8125 C 11.828125 -17.8125 12.785156 -17.675781 13.578125 -17.40625 C 14.378906 -17.132812 15.039062 -16.742188 15.5625 -16.234375 C 15.925781 -15.859375 16.207031 -15.429688 16.40625 -14.953125 C 16.613281 -14.484375 16.71875 -13.941406 16.71875 -13.328125 L 16.71875 -13.28125 C 16.71875 -12.257812 16.453125 -11.425781 15.921875 -10.78125 C 15.398438 -10.132812 14.75 -9.644531 13.96875 -9.3125 C 15.03125 -8.957031 15.882812 -8.441406 16.53125 -7.765625 C 17.175781 -7.097656 17.5 -6.160156 17.5 -4.953125 L 17.5 -4.90625 C 17.5 -3.382812 16.90625 -2.1875 15.71875 -1.3125 C 14.53125 -0.4375 12.878906 0 10.765625 0 Z M 11.859375 -12.265625 L 11.859375 -12.3125 C 11.859375 -12.800781 11.664062 -13.175781 11.28125 -13.4375 C 10.894531 -13.707031 10.335938 -13.84375 9.609375 -13.84375 L 6.390625 -13.84375 L 6.390625 -10.703125 L 9.484375 -10.703125 C 10.234375 -10.703125 10.816406 -10.828125 11.234375 -11.078125 C 11.648438 -11.335938 11.859375 -11.734375 11.859375 -12.265625 Z M 12.5625 -5.640625 C 12.5625 -6.117188 12.363281 -6.503906 11.96875 -6.796875 C 11.582031 -7.097656 10.976562 -7.25 10.15625 -7.25 L 6.390625 -7.25 L 6.390625 -3.96875 L 10.203125 -3.96875 C 10.960938 -3.96875 11.546875 -4.109375 11.953125 -4.390625 C 12.359375 -4.671875 12.5625 -5.070312 12.5625 -5.59375 Z M 12.5625 -5.640625 "/></g></g></g><g fill="#1a7deb" fill-opacity="1"><g transform="translate(26.187977, 24.948937)"><g><path d="M 5.234375 0.3125 C 3.929688 0.3125 2.835938 -0.0546875 1.953125 -0.796875 C 1.078125 -1.535156 0.640625 -2.582031 0.640625 -3.9375 L 0.640625 -4 C 0.640625 -5.414062 1.132812 -6.488281 2.125 -7.21875 C 3.113281 -7.945312 4.414062 -8.3125 6.03125 -8.3125 C 6.65625 -8.3125 7.265625 -8.257812 7.859375 -8.15625 C 8.453125 -8.0625 8.941406 -7.9375 9.328125 -7.78125 L 9.328125 -8.015625 C 9.328125 -8.742188 9.097656 -9.300781 8.640625 -9.6875 C 8.191406 -10.082031 7.507812 -10.28125 6.59375 -10.28125 C 5.863281 -10.28125 5.203125 -10.207031 4.609375 -10.0625 C 4.015625 -9.914062 3.398438 -9.734375 2.765625 -9.515625 L 1.78125 -12.890625 C 2.5625 -13.210938 3.390625 -13.472656 4.265625 -13.671875 C 5.148438 -13.867188 6.175781 -13.96875 7.34375 -13.96875 C 8.570312 -13.96875 9.617188 -13.820312 10.484375 -13.53125 C 11.347656 -13.238281 12.050781 -12.820312 12.59375 -12.28125 C 13.113281 -11.769531 13.488281 -11.15625 13.71875 -10.4375 C 13.945312 -9.71875 14.0625 -8.875 14.0625 -7.90625 L 14.0625 0 L 9.3125 0 L 9.3125 -1.453125 C 8.832031 -0.921875 8.257812 -0.492188 7.59375 -0.171875 C 6.925781 0.148438 6.140625 0.3125 5.234375 0.3125 Z M 6.96875 -2.71875 C 7.675781 -2.71875 8.253906 -2.925781 8.703125 -3.34375 C 9.160156 -3.757812 9.390625 -4.304688 9.390625 -4.984375 L 9.390625 -5.625 C 9.128906 -5.726562 8.832031 -5.8125 8.5 -5.875 C 8.175781 -5.945312 7.835938 -5.984375 7.484375 -5.984375 C 6.785156 -5.984375 6.238281 -5.828125 5.84375 -5.515625 C 5.457031 -5.210938 5.265625 -4.800781 5.265625 -4.28125 L 5.265625 -4.21875 C 5.265625 -3.75 5.425781 -3.378906 5.75 -3.109375 C 6.070312 -2.847656 6.476562 -2.71875 6.96875 -2.71875 Z M 6.96875 -2.71875 "/></g></g></g><g fill="#1a7deb" fill-opacity="1"><g transform="translate(41.422521, 24.948937)"><g><path d="M 6.890625 0.3125 C 6.078125 0.3125 5.296875 0.144531 4.546875 -0.1875 C 3.804688 -0.519531 3.160156 -0.988281 2.609375 -1.59375 C 2.054688 -2.207031 1.613281 -2.953125 1.28125 -3.828125 C 0.945312 -4.710938 0.78125 -5.707031 0.78125 -6.8125 L 0.78125 -6.875 C 0.78125 -7.988281 0.945312 -8.988281 1.28125 -9.875 C 1.613281 -10.769531 2.054688 -11.523438 2.609375 -12.140625 C 3.160156 -12.765625 3.800781 -13.238281 4.53125 -13.5625 C 5.269531 -13.894531 6.050781 -14.0625 6.875 -14.0625 C 7.90625 -14.0625 8.75 -13.863281 9.40625 -13.46875 C 10.070312 -13.070312 10.625 -12.609375 11.0625 -12.078125 L 11.0625 -18.5625 L 15.90625 -18.5625 L 15.90625 0 L 11.0625 0 L 11.0625 -1.828125 C 10.59375 -1.253906 10.035156 -0.753906 9.390625 -0.328125 C 8.742188 0.0976562 7.910156 0.3125 6.890625 0.3125 Z M 8.34375 -3.734375 C 9.125 -3.734375 9.789062 -4.023438 10.34375 -4.609375 C 10.894531 -5.203125 11.171875 -5.957031 11.171875 -6.875 L 11.171875 -6.921875 C 11.171875 -7.816406 10.894531 -8.5625 10.34375 -9.15625 C 9.789062 -9.75 9.125 -10.046875 8.34375 -10.046875 C 7.5625 -10.046875 6.894531 -9.753906 6.34375 -9.171875 C 5.789062 -8.585938 5.515625 -7.835938 5.515625 -6.921875 L 5.515625 -6.875 C 5.515625 -5.957031 5.789062 -5.203125 6.34375 -4.609375 C 6.894531 -4.023438 7.5625 -3.734375 8.34375 -3.734375 Z M 8.34375 -3.734375 "/></g></g></g><g fill="#1a7deb" fill-opacity="1"><g transform="translate(58.615426, 24.948937)"><g><path d="M 8.09375 -5.46875 L 10.6875 -13.765625 L 15.640625 -13.765625 L 10.609375 -0.328125 C 10.015625 1.273438 9.332031 2.421875 8.5625 3.109375 C 7.800781 3.796875 6.738281 4.140625 5.375 4.140625 C 4.519531 4.140625 3.726562 4.035156 3 3.828125 C 2.269531 3.617188 1.59375 3.328125 0.96875 2.953125 L 2.4375 -0.4375 C 2.832031 -0.21875 3.210938 -0.0390625 3.578125 0.09375 C 3.953125 0.238281 4.273438 0.3125 4.546875 0.3125 C 4.785156 0.3125 4.992188 0.269531 5.171875 0.1875 C 5.347656 0.113281 5.523438 -0.03125 5.703125 -0.25 L 0.3125 -13.765625 L 5.34375 -13.765625 Z M 8.09375 -5.46875 "/></g></g></g><g fill="#1a7deb" fill-opacity="1"><g transform="translate(73.773649, 24.948937)"><g><path d="M 8.140625 0.328125 C 7.066406 0.328125 6.070312 0.15625 5.15625 -0.1875 C 4.25 -0.539062 3.472656 -1.03125 2.828125 -1.65625 C 2.179688 -2.28125 1.675781 -3.03125 1.3125 -3.90625 C 0.945312 -4.789062 0.765625 -5.757812 0.765625 -6.8125 L 0.765625 -6.875 C 0.765625 -7.875 0.929688 -8.8125 1.265625 -9.6875 C 1.609375 -10.570312 2.085938 -11.335938 2.703125 -11.984375 C 3.328125 -12.628906 4.0625 -13.132812 4.90625 -13.5 C 5.757812 -13.875 6.691406 -14.0625 7.703125 -14.0625 C 8.878906 -14.0625 9.898438 -13.859375 10.765625 -13.453125 C 11.640625 -13.046875 12.359375 -12.5 12.921875 -11.8125 C 13.492188 -11.125 13.921875 -10.320312 14.203125 -9.40625 C 14.484375 -8.488281 14.625 -7.53125 14.625 -6.53125 C 14.625 -6.382812 14.625 -6.222656 14.625 -6.046875 C 14.625 -5.878906 14.613281 -5.710938 14.59375 -5.546875 L 5.390625 -5.546875 C 5.578125 -4.796875 5.929688 -4.226562 6.453125 -3.84375 C 6.984375 -3.46875 7.625 -3.28125 8.375 -3.28125 C 8.945312 -3.28125 9.472656 -3.394531 9.953125 -3.625 C 10.441406 -3.851562 10.929688 -4.207031 11.421875 -4.6875 L 14.09375 -2.46875 C 13.425781 -1.632812 12.601562 -0.957031 11.625 -0.4375 C 10.65625 0.0703125 9.492188 0.328125 8.140625 0.328125 Z M 5.3125 -8.015625 L 10.125 -8.015625 C 10.039062 -8.773438 9.78125 -9.378906 9.34375 -9.828125 C 8.914062 -10.273438 8.367188 -10.5 7.703125 -10.5 C 7.078125 -10.5 6.550781 -10.273438 6.125 -9.828125 C 5.707031 -9.378906 5.4375 -8.773438 5.3125 -8.015625 Z M 5.3125 -8.015625 "/></g></g></g><g fill="#1a7deb" fill-opacity="1"><g transform="translate(89.186222, 24.948937)"><g><path d="M 6.765625 0.28125 C 5.328125 0.28125 4.195312 -0.0664062 3.375 -0.765625 C 2.5625 -1.472656 2.15625 -2.644531 2.15625 -4.28125 L 2.15625 -9.890625 L 0.53125 -9.890625 L 0.53125 -13.765625 L 2.15625 -13.765625 L 2.15625 -17.25 L 6.96875 -17.25 L 6.96875 -13.765625 L 10.171875 -13.765625 L 10.171875 -9.890625 L 6.96875 -9.890625 L 6.96875 -5.21875 C 6.96875 -4.738281 7.078125 -4.390625 7.296875 -4.171875 C 7.515625 -3.953125 7.847656 -3.84375 8.296875 -3.84375 C 8.617188 -3.84375 8.929688 -3.882812 9.234375 -3.96875 C 9.535156 -4.050781 9.832031 -4.160156 10.125 -4.296875 L 10.125 -0.53125 C 9.695312 -0.289062 9.195312 -0.0976562 8.625 0.046875 C 8.0625 0.203125 7.441406 0.28125 6.765625 0.28125 Z M 6.765625 0.28125 "/></g></g></g><g fill="#000000" fill-opacity="1"><g transform="translate(100.153394, 24.948937)"><g><path d="M 1.578125 0 L 1.578125 -17.8125 L 6.515625 -17.8125 L 6.515625 -10.578125 L 12.640625 -17.8125 L 18.5 -17.8125 L 11.75 -10.171875 L 18.71875 0 L 12.828125 0 L 8.3125 -6.609375 L 6.515625 -4.625 L 6.515625 0 Z M 1.578125 0 "/></g></g></g><g fill="#000000" fill-opacity="1"><g transform="translate(117.829504, 24.948937)"><g><path d="M 8.3125 0.328125 C 7.226562 0.328125 6.21875 0.140625 5.28125 -0.234375 C 4.351562 -0.617188 3.554688 -1.132812 2.890625 -1.78125 C 2.234375 -2.425781 1.710938 -3.1875 1.328125 -4.0625 C 0.953125 -4.9375 0.765625 -5.851562 0.765625 -6.8125 L 0.765625 -6.875 C 0.765625 -7.832031 0.953125 -8.753906 1.328125 -9.640625 C 1.710938 -10.523438 2.238281 -11.289062 2.90625 -11.9375 C 3.582031 -12.59375 4.382812 -13.109375 5.3125 -13.484375 C 6.25 -13.867188 7.269531 -14.0625 8.375 -14.0625 C 9.46875 -14.0625 10.476562 -13.867188 11.40625 -13.484375 C 12.332031 -13.109375 13.128906 -12.597656 13.796875 -11.953125 C 14.460938 -11.304688 14.988281 -10.546875 15.375 -9.671875 C 15.757812 -8.804688 15.953125 -7.890625 15.953125 -6.921875 L 15.953125 -6.875 C 15.953125 -5.90625 15.757812 -4.976562 15.375 -4.09375 C 14.988281 -3.207031 14.460938 -2.4375 13.796875 -1.78125 C 13.128906 -1.132812 12.320312 -0.617188 11.375 -0.234375 C 10.4375 0.140625 9.414062 0.328125 8.3125 0.328125 Z M 8.375 -3.765625 C 9.238281 -3.765625 9.9375 -4.066406 10.46875 -4.671875 C 11 -5.273438 11.265625 -5.988281 11.265625 -6.8125 L 11.265625 -6.875 C 11.265625 -7.71875 10.984375 -8.445312 10.421875 -9.0625 C 9.867188 -9.6875 9.164062 -10 8.3125 -10 C 7.445312 -10 6.75 -9.691406 6.21875 -9.078125 C 5.695312 -8.472656 5.4375 -7.753906 5.4375 -6.921875 L 5.4375 -6.875 C 5.4375 -6.039062 5.710938 -5.3125 6.265625 -4.6875 C 6.816406 -4.070312 7.519531 -3.765625 8.375 -3.765625 Z M 8.375 -3.765625 "/></g></g></g><g fill="#000000" fill-opacity="1"><g transform="translate(134.513744, 24.948937)"><g><path d="M 1.296875 0 L 1.296875 -13.765625 L 6.125 -13.765625 L 6.125 -11.828125 C 6.570312 -12.398438 7.128906 -12.914062 7.796875 -13.375 C 8.460938 -13.832031 9.28125 -14.0625 10.25 -14.0625 C 11.707031 -14.0625 12.851562 -13.609375 13.6875 -12.703125 C 14.519531 -11.796875 14.9375 -10.5625 14.9375 -9 L 14.9375 0 L 10.125 0 L 10.125 -7.453125 C 10.125 -8.210938 9.941406 -8.789062 9.578125 -9.1875 C 9.210938 -9.59375 8.742188 -9.796875 8.171875 -9.796875 C 7.585938 -9.796875 7.097656 -9.59375 6.703125 -9.1875 C 6.316406 -8.789062 6.125 -8.210938 6.125 -7.453125 L 6.125 0 Z M 1.296875 0 "/></g></g></g></g></g></g></svg>